<svg version="1.2" xmlns="http://www.w3.org/2000/svg" viewBox="0 0 30 30" width="30" height="30">
	<title>modal-close-svg</title>
	<style>
		.s0 { opacity: .7;fill: #101010 } 
	</style>
	<path id="Layer" class="s0" d="m22.3 21.1q0.2 0.2 0.1 0.5 0 0.4-0.2 0.6-0.2 0.2-0.6 0.2-0.3 0.1-0.5-0.2l-6.1-6-6.1 6q-0.1 0.2-0.3 0.3-0.1 0-0.3 0-0.2 0-0.3 0-0.2-0.1-0.3-0.2-0.1-0.1-0.2-0.3-0.1-0.2 0-0.3 0-0.2 0-0.4 0.1-0.1 0.2-0.2l6.1-6.1-6-6.1q-0.3-0.2-0.2-0.6 0-0.3 0.2-0.5 0.2-0.2 0.6-0.3 0.3 0 0.5 0.2l6.1 6.1 6.1-6.1q0.2-0.2 0.5-0.1 0.4 0 0.6 0.2 0.2 0.2 0.2 0.6 0.1 0.3-0.1 0.5l-6.1 6.1z"/>
</svg>