<svg version="1.2" xmlns="http://www.w3.org/2000/svg" viewBox="0 0 64 64" width="64" height="64">
	<title>logo-google-svg</title>
	<style>
		.s0 { fill: #c6c6c6 } 
	</style>
	<path id="Layer" class="s0" d="m59.5 32.7c0 7.3-2.5 14.3-7.3 19.3-4.9 5.2-11.7 8-18.9 8-8 0-15.7-2.9-21.1-8.6-5.1-5.2-7.7-12.4-7.7-19.4 0-7 2.8-14.6 8-19.8 5.3-5.3 12.6-8.2 20.2-8.2 9.8 0 16.2 5.1 18.5 7.1l-7.9 7.8c-1.4-1.3-5.1-4-10.3-4-4.6 0-9.2 1.7-12.2 4.7-3.1 3.1-5.2 7.7-5.2 12.4q0.1 1.7 0.4 3.4 0.4 1.7 1 3.3 0.7 1.6 1.7 3 0.9 1.4 2.2 2.6c3.1 3.1 7.8 4.9 12.2 4.9 6.2 0 13.7-4 15.3-11.7h-15.6v-11h26.1l0.2 1.2c0.1 0.1 0.4 1.9 0.4 5z"/>
</svg>